<mxfile host="app.diagrams.net" modified="2024-04-02T11:48:55.367Z" agent="Mozilla/5.0 (Windows NT 10.0; Win64; x64) AppleWebKit/537.36 (KHTML, like Gecko) Chrome/123.0.0.0 Safari/537.36" etag="KxmcLz8NT5ndUY45HhCT" version="24.2.1" type="device">
  <diagram id="C5RBs43oDa-KdzZeNtuy" name="Page-1">
    <mxGraphModel dx="1050" dy="562" grid="1" gridSize="10" guides="1" tooltips="1" connect="1" arrows="1" fold="1" page="1" pageScale="1" pageWidth="827" pageHeight="1169" math="0" shadow="0">
      <root>
        <mxCell id="WIyWlLk6GJQsqaUBKTNV-0" />
        <mxCell id="WIyWlLk6GJQsqaUBKTNV-1" parent="WIyWlLk6GJQsqaUBKTNV-0" />
        <mxCell id="1xqybDiWn_lU7j_iLYuP-0" value="Load Landing Page" style="swimlane;whiteSpace=wrap;html=1;" vertex="1" parent="WIyWlLk6GJQsqaUBKTNV-1">
          <mxGeometry x="80" y="50" width="470" height="410" as="geometry" />
        </mxCell>
        <mxCell id="1xqybDiWn_lU7j_iLYuP-60" value="" style="edgeStyle=orthogonalEdgeStyle;rounded=0;orthogonalLoop=1;jettySize=auto;html=1;" edge="1" parent="1xqybDiWn_lU7j_iLYuP-0" source="1xqybDiWn_lU7j_iLYuP-61" target="1xqybDiWn_lU7j_iLYuP-63">
          <mxGeometry relative="1" as="geometry" />
        </mxCell>
        <mxCell id="1xqybDiWn_lU7j_iLYuP-61" value="&lt;b&gt;&lt;i&gt;&lt;u&gt;Entry Point&lt;/u&gt;&lt;/i&gt;&lt;/b&gt;" style="rounded=0;whiteSpace=wrap;html=1;fillColor=#f8cecc;strokeColor=#b85450;" vertex="1" parent="1xqybDiWn_lU7j_iLYuP-0">
          <mxGeometry x="156" y="50" width="104" height="52" as="geometry" />
        </mxCell>
        <mxCell id="1xqybDiWn_lU7j_iLYuP-62" style="edgeStyle=orthogonalEdgeStyle;rounded=0;orthogonalLoop=1;jettySize=auto;html=1;entryX=0;entryY=0.5;entryDx=0;entryDy=0;dashed=1;exitX=0;exitY=0.5;exitDx=0;exitDy=0;" edge="1" parent="1xqybDiWn_lU7j_iLYuP-0" source="1xqybDiWn_lU7j_iLYuP-63" target="1xqybDiWn_lU7j_iLYuP-66">
          <mxGeometry relative="1" as="geometry">
            <Array as="points">
              <mxPoint x="70" y="166" />
              <mxPoint x="70" y="260" />
            </Array>
          </mxGeometry>
        </mxCell>
        <mxCell id="1xqybDiWn_lU7j_iLYuP-63" value="&lt;b&gt;Ask for&lt;br&gt;&lt;/b&gt;&lt;i&gt;API data&lt;/i&gt;" style="rounded=0;whiteSpace=wrap;html=1;fillColor=#d5e8d4;strokeColor=#82b366;" vertex="1" parent="1xqybDiWn_lU7j_iLYuP-0">
          <mxGeometry x="156" y="140" width="104" height="52" as="geometry" />
        </mxCell>
        <mxCell id="1xqybDiWn_lU7j_iLYuP-64" value="" style="edgeStyle=orthogonalEdgeStyle;rounded=0;orthogonalLoop=1;jettySize=auto;html=1;" edge="1" parent="1xqybDiWn_lU7j_iLYuP-0" source="1xqybDiWn_lU7j_iLYuP-66" target="1xqybDiWn_lU7j_iLYuP-70">
          <mxGeometry relative="1" as="geometry" />
        </mxCell>
        <mxCell id="1xqybDiWn_lU7j_iLYuP-66" value="&lt;b&gt;Receive&lt;/b&gt;&lt;br&gt;&lt;i&gt;API data&lt;/i&gt;" style="rounded=0;whiteSpace=wrap;html=1;fillColor=#f8cecc;strokeColor=#b85450;" vertex="1" parent="1xqybDiWn_lU7j_iLYuP-0">
          <mxGeometry x="156" y="234" width="104" height="52" as="geometry" />
        </mxCell>
        <mxCell id="1xqybDiWn_lU7j_iLYuP-67" value="&lt;b&gt;Error System&lt;/b&gt;" style="rounded=0;whiteSpace=wrap;html=1;fillColor=#f8cecc;strokeColor=#b85450;" vertex="1" parent="1xqybDiWn_lU7j_iLYuP-0">
          <mxGeometry x="181" y="332.21" width="54" height="47.57" as="geometry" />
        </mxCell>
        <mxCell id="1xqybDiWn_lU7j_iLYuP-68" value="&lt;b&gt;Display &lt;/b&gt;&lt;i&gt;Error&lt;/i&gt;" style="rounded=0;whiteSpace=wrap;html=1;fillColor=#fff2cc;strokeColor=#d6b656;" vertex="1" parent="1xqybDiWn_lU7j_iLYuP-0">
          <mxGeometry x="70" y="332.21" width="60" height="47.57" as="geometry" />
        </mxCell>
        <mxCell id="1xqybDiWn_lU7j_iLYuP-69" value="" style="endArrow=classic;html=1;rounded=0;entryX=1;entryY=0.5;entryDx=0;entryDy=0;exitX=0;exitY=0.5;exitDx=0;exitDy=0;" edge="1" parent="1xqybDiWn_lU7j_iLYuP-0" source="1xqybDiWn_lU7j_iLYuP-67" target="1xqybDiWn_lU7j_iLYuP-68">
          <mxGeometry width="50" height="50" relative="1" as="geometry">
            <mxPoint x="71" y="434" as="sourcePoint" />
            <mxPoint x="341" y="462.56999999999994" as="targetPoint" />
          </mxGeometry>
        </mxCell>
        <mxCell id="1xqybDiWn_lU7j_iLYuP-70" value="&lt;b&gt;Build&lt;/b&gt;&lt;div&gt;&lt;i&gt;Weather&lt;/i&gt;&lt;/div&gt;" style="rounded=0;whiteSpace=wrap;html=1;fillColor=#fff2cc;strokeColor=#d6b656;" vertex="1" parent="1xqybDiWn_lU7j_iLYuP-0">
          <mxGeometry x="360" y="234" width="90" height="52" as="geometry" />
        </mxCell>
        <mxCell id="1xqybDiWn_lU7j_iLYuP-71" value="" style="endArrow=classic;html=1;rounded=0;exitX=0.5;exitY=1;exitDx=0;exitDy=0;entryX=0.5;entryY=0;entryDx=0;entryDy=0;" edge="1" parent="1xqybDiWn_lU7j_iLYuP-0" source="1xqybDiWn_lU7j_iLYuP-66" target="1xqybDiWn_lU7j_iLYuP-67">
          <mxGeometry width="50" height="50" relative="1" as="geometry">
            <mxPoint x="103" y="377" as="sourcePoint" />
            <mxPoint x="161" y="440" as="targetPoint" />
          </mxGeometry>
        </mxCell>
        <mxCell id="1xqybDiWn_lU7j_iLYuP-73" value="Data ok" style="text;html=1;align=center;verticalAlign=middle;resizable=0;points=[];autosize=1;strokeColor=none;fillColor=none;" vertex="1" parent="1xqybDiWn_lU7j_iLYuP-0">
          <mxGeometry x="280" y="233" width="60" height="30" as="geometry" />
        </mxCell>
        <mxCell id="1xqybDiWn_lU7j_iLYuP-74" value="Async" style="text;html=1;align=center;verticalAlign=middle;resizable=0;points=[];autosize=1;strokeColor=none;fillColor=none;" vertex="1" parent="1xqybDiWn_lU7j_iLYuP-0">
          <mxGeometry x="10" y="203" width="60" height="30" as="geometry" />
        </mxCell>
      </root>
    </mxGraphModel>
  </diagram>
</mxfile>
